<svg width="1440" height="993" viewBox="0 0 1440 993" fill="none" xmlns="http://www.w3.org/2000/svg">
<path opacity="0.5" d="M-139.904 67.2659C640.82 178.739 1608.53 67.2659 1608.53 67.2659C1608.53 67.2659 2244.76 1132.31 1608.53 976.513C972.293 820.719 343.343 1022.18 -139.904 976.513C-623.152 930.85 -920.628 -44.2075 -139.904 67.2659Z" fill="#E7ECFF"/>
<path d="M1247.38 603.67C1240.24 648.528 1215.14 689.486 1180.21 718.459C1177.79 720.362 1175.34 722.264 1172.88 724.166C1172.88 724.166 1172.75 724.166 1172.69 724.281C1148.45 742.714 1120.02 754.846 1089.94 759.589C1034.75 767.826 979.017 751.218 923.262 748.327C823.342 743.114 727.057 781.675 628.621 799.329C530.185 816.983 414.261 806.939 351.942 728.827C351.569 728.396 351.22 727.945 350.896 727.477C331.144 702.194 318.642 672.118 303.076 643.963C300.374 639.035 297.615 634.241 294.723 629.505C267.036 584.666 226.352 547.931 205.287 499.706C184.229 451.062 184.956 395.742 207.285 347.668C227.228 305.474 262.298 272.62 296.492 240.888C298.719 238.853 300.869 236.817 303.076 234.782C332.444 207.54 361.837 180.272 391.256 152.98C407.43 138.046 423.605 122.979 440.407 108.693C462.69 89.707 485.81 71.8247 511.08 57.0433C572.543 20.746 630.961 24.8742 697.752 13.5551C774.895 0.447754 853.902 -10.9855 928.971 18.7295C972.737 36.0031 1010.36 65.5849 1047.27 94.6912C1053.25 99.4281 1059.22 104.089 1065.18 108.826C1098.95 135.459 1132.62 162.092 1165.9 189.353C1173.17 195.308 1180.49 201.414 1187.31 207.92C1197.9 218.022 1207.3 229.151 1213.34 242.372C1220.61 258.181 1222.45 275.835 1224.22 293.108C1226.7 317.421 1229.16 341.676 1231.6 365.874C1233.09 380.275 1234.5 394.676 1235.98 409.001C1239.32 441.658 1242.64 474.277 1245.95 506.859C1249.17 539.085 1252.44 571.692 1247.38 603.67Z" fill="#E7ECFF"/>
</svg>
